<mxfile host="app.diagrams.net" modified="2020-11-06T19:54:30.795Z" agent="5.0 (Windows)" etag="buwqCt12lLE9X6l2IgkO" version="13.9.2" type="github">
  <diagram id="OaKvePcjluUE4qMi1d3j" name="Page-1">
    <mxGraphModel dx="1422" dy="791" grid="1" gridSize="10" guides="1" tooltips="1" connect="1" arrows="1" fold="1" page="1" pageScale="1" pageWidth="1169" pageHeight="827" math="0" shadow="0">
      <root>
        <mxCell id="0" />
        <mxCell id="1" parent="0" />
        <mxCell id="kX25k0GwAJQY_nR9NhdA-6" value="Senior Developer" style="verticalLabelPosition=middle;html=1;strokeColor=#ffffff;verticalAlign=middle;align=left;points=[[0,0.5,0],[0.125,0.25,0],[0.25,0,0],[0.5,0,0],[0.75,0,0],[0.875,0.25,0],[1,0.5,0],[0.875,0.75,0],[0.75,1,0],[0.5,1,0],[0.125,0.75,0]];pointerEvents=1;shape=mxgraph.cisco_safe.compositeIcon;bgIcon=ellipse;resIcon=mxgraph.cisco_safe.design.user;labelPosition=right;spacingRight=0;spacingLeft=6;fontFamily=Tahoma;fontStyle=1;fontColor=#A680B8;fillColor=#A680B8;" vertex="1" parent="1">
          <mxGeometry x="160" y="200" width="40" height="40" as="geometry" />
        </mxCell>
        <mxCell id="kX25k0GwAJQY_nR9NhdA-7" value="Senior Developer" style="verticalLabelPosition=middle;html=1;strokeColor=#ffffff;verticalAlign=middle;align=left;points=[[0,0.5,0],[0.125,0.25,0],[0.25,0,0],[0.5,0,0],[0.75,0,0],[0.875,0.25,0],[1,0.5,0],[0.875,0.75,0],[0.75,1,0],[0.5,1,0],[0.125,0.75,0]];pointerEvents=1;shape=mxgraph.cisco_safe.compositeIcon;bgIcon=ellipse;resIcon=mxgraph.cisco_safe.design.user;labelPosition=right;spacingRight=0;spacingLeft=6;fontFamily=Tahoma;fontStyle=1;fontColor=#A680B8;fillColor=#A680B8;" vertex="1" parent="1">
          <mxGeometry x="400" y="200" width="40" height="40" as="geometry" />
        </mxCell>
        <mxCell id="kX25k0GwAJQY_nR9NhdA-8" value="Senior Developer" style="verticalLabelPosition=middle;html=1;strokeColor=#ffffff;verticalAlign=middle;align=left;points=[[0,0.5,0],[0.125,0.25,0],[0.25,0,0],[0.5,0,0],[0.75,0,0],[0.875,0.25,0],[1,0.5,0],[0.875,0.75,0],[0.75,1,0],[0.5,1,0],[0.125,0.75,0]];pointerEvents=1;shape=mxgraph.cisco_safe.compositeIcon;bgIcon=ellipse;resIcon=mxgraph.cisco_safe.design.user;labelPosition=right;spacingRight=0;spacingLeft=6;fontFamily=Tahoma;fontStyle=1;fontColor=#A680B8;fillColor=#A680B8;" vertex="1" parent="1">
          <mxGeometry x="610" y="200" width="40" height="40" as="geometry" />
        </mxCell>
        <mxCell id="kX25k0GwAJQY_nR9NhdA-9" value="Senior Developer" style="verticalLabelPosition=middle;html=1;strokeColor=#ffffff;verticalAlign=middle;align=left;points=[[0,0.5,0],[0.125,0.25,0],[0.25,0,0],[0.5,0,0],[0.75,0,0],[0.875,0.25,0],[1,0.5,0],[0.875,0.75,0],[0.75,1,0],[0.5,1,0],[0.125,0.75,0]];pointerEvents=1;shape=mxgraph.cisco_safe.compositeIcon;bgIcon=ellipse;resIcon=mxgraph.cisco_safe.design.user;labelPosition=right;spacingRight=0;spacingLeft=6;fontFamily=Tahoma;fontStyle=1;fontColor=#A680B8;fillColor=#A680B8;" vertex="1" parent="1">
          <mxGeometry x="160" y="250" width="40" height="40" as="geometry" />
        </mxCell>
        <mxCell id="kX25k0GwAJQY_nR9NhdA-10" value="Senior Developer" style="verticalLabelPosition=middle;html=1;strokeColor=#ffffff;verticalAlign=middle;align=left;points=[[0,0.5,0],[0.125,0.25,0],[0.25,0,0],[0.5,0,0],[0.75,0,0],[0.875,0.25,0],[1,0.5,0],[0.875,0.75,0],[0.75,1,0],[0.5,1,0],[0.125,0.75,0]];pointerEvents=1;shape=mxgraph.cisco_safe.compositeIcon;bgIcon=ellipse;resIcon=mxgraph.cisco_safe.design.user;labelPosition=right;spacingRight=0;spacingLeft=6;fontFamily=Tahoma;fontStyle=1;fontColor=#A680B8;fillColor=#A680B8;" vertex="1" parent="1">
          <mxGeometry x="400" y="250" width="40" height="40" as="geometry" />
        </mxCell>
        <mxCell id="kX25k0GwAJQY_nR9NhdA-11" value="Senior Developer" style="verticalLabelPosition=middle;html=1;strokeColor=#ffffff;verticalAlign=middle;align=left;points=[[0,0.5,0],[0.125,0.25,0],[0.25,0,0],[0.5,0,0],[0.75,0,0],[0.875,0.25,0],[1,0.5,0],[0.875,0.75,0],[0.75,1,0],[0.5,1,0],[0.125,0.75,0]];pointerEvents=1;shape=mxgraph.cisco_safe.compositeIcon;bgIcon=ellipse;resIcon=mxgraph.cisco_safe.design.user;labelPosition=right;spacingRight=0;spacingLeft=6;fontFamily=Tahoma;fontStyle=1;fontColor=#A680B8;fillColor=#A680B8;" vertex="1" parent="1">
          <mxGeometry x="610" y="250" width="40" height="40" as="geometry" />
        </mxCell>
        <mxCell id="kX25k0GwAJQY_nR9NhdA-12" value="Lead Developer" style="verticalLabelPosition=middle;html=1;strokeColor=#ffffff;verticalAlign=middle;align=left;points=[[0,0.5,0],[0.125,0.25,0],[0.25,0,0],[0.5,0,0],[0.75,0,0],[0.875,0.25,0],[1,0.5,0],[0.875,0.75,0],[0.75,1,0],[0.5,1,0],[0.125,0.75,0]];pointerEvents=1;shape=mxgraph.cisco_safe.compositeIcon;bgIcon=ellipse;resIcon=mxgraph.cisco_safe.design.user;labelPosition=right;spacingRight=0;spacingLeft=6;fontFamily=Tahoma;fontStyle=1;fillColor=#67AB9F;fontColor=#67AB9F;" vertex="1" parent="1">
          <mxGeometry x="400" y="150" width="40" height="40" as="geometry" />
        </mxCell>
        <mxCell id="kX25k0GwAJQY_nR9NhdA-13" value="Lead Developer" style="verticalLabelPosition=middle;html=1;strokeColor=#ffffff;verticalAlign=middle;align=left;points=[[0,0.5,0],[0.125,0.25,0],[0.25,0,0],[0.5,0,0],[0.75,0,0],[0.875,0.25,0],[1,0.5,0],[0.875,0.75,0],[0.75,1,0],[0.5,1,0],[0.125,0.75,0]];pointerEvents=1;shape=mxgraph.cisco_safe.compositeIcon;bgIcon=ellipse;resIcon=mxgraph.cisco_safe.design.user;labelPosition=right;spacingRight=0;spacingLeft=6;fontFamily=Tahoma;fontStyle=1;fillColor=#67AB9F;fontColor=#67AB9F;" vertex="1" parent="1">
          <mxGeometry x="160" y="150" width="40" height="40" as="geometry" />
        </mxCell>
        <mxCell id="kX25k0GwAJQY_nR9NhdA-14" value="Lead Developer" style="verticalLabelPosition=middle;html=1;strokeColor=#ffffff;verticalAlign=middle;align=left;points=[[0,0.5,0],[0.125,0.25,0],[0.25,0,0],[0.5,0,0],[0.75,0,0],[0.875,0.25,0],[1,0.5,0],[0.875,0.75,0],[0.75,1,0],[0.5,1,0],[0.125,0.75,0]];pointerEvents=1;shape=mxgraph.cisco_safe.compositeIcon;bgIcon=ellipse;resIcon=mxgraph.cisco_safe.design.user;labelPosition=right;spacingRight=0;spacingLeft=6;fontFamily=Tahoma;fontStyle=1;fillColor=#67AB9F;fontColor=#67AB9F;" vertex="1" parent="1">
          <mxGeometry x="610" y="150" width="40" height="40" as="geometry" />
        </mxCell>
        <mxCell id="kX25k0GwAJQY_nR9NhdA-15" value="Developer" style="verticalLabelPosition=middle;html=1;strokeColor=#ffffff;verticalAlign=middle;align=left;points=[[0,0.5,0],[0.125,0.25,0],[0.25,0,0],[0.5,0,0],[0.75,0,0],[0.875,0.25,0],[1,0.5,0],[0.875,0.75,0],[0.75,1,0],[0.5,1,0],[0.125,0.75,0]];pointerEvents=1;shape=mxgraph.cisco_safe.compositeIcon;bgIcon=ellipse;resIcon=mxgraph.cisco_safe.design.user;labelPosition=right;spacingRight=0;spacingLeft=6;fontFamily=Tahoma;fontStyle=1;fillColor=#7EA6E0;fontColor=#7EA6E0;" vertex="1" parent="1">
          <mxGeometry x="160" y="310" width="40" height="40" as="geometry" />
        </mxCell>
        <mxCell id="kX25k0GwAJQY_nR9NhdA-16" value="Developer" style="verticalLabelPosition=middle;html=1;strokeColor=#ffffff;verticalAlign=middle;align=left;points=[[0,0.5,0],[0.125,0.25,0],[0.25,0,0],[0.5,0,0],[0.75,0,0],[0.875,0.25,0],[1,0.5,0],[0.875,0.75,0],[0.75,1,0],[0.5,1,0],[0.125,0.75,0]];pointerEvents=1;shape=mxgraph.cisco_safe.compositeIcon;bgIcon=ellipse;resIcon=mxgraph.cisco_safe.design.user;labelPosition=right;spacingRight=0;spacingLeft=6;fontFamily=Tahoma;fontStyle=1;fillColor=#7EA6E0;fontColor=#7EA6E0;" vertex="1" parent="1">
          <mxGeometry x="400" y="310" width="40" height="40" as="geometry" />
        </mxCell>
        <mxCell id="kX25k0GwAJQY_nR9NhdA-17" value="Developer" style="verticalLabelPosition=middle;html=1;strokeColor=#ffffff;verticalAlign=middle;align=left;points=[[0,0.5,0],[0.125,0.25,0],[0.25,0,0],[0.5,0,0],[0.75,0,0],[0.875,0.25,0],[1,0.5,0],[0.875,0.75,0],[0.75,1,0],[0.5,1,0],[0.125,0.75,0]];pointerEvents=1;shape=mxgraph.cisco_safe.compositeIcon;bgIcon=ellipse;resIcon=mxgraph.cisco_safe.design.user;labelPosition=right;spacingRight=0;spacingLeft=6;fontFamily=Tahoma;fontStyle=1;fillColor=#7EA6E0;fontColor=#7EA6E0;" vertex="1" parent="1">
          <mxGeometry x="610" y="310" width="40" height="40" as="geometry" />
        </mxCell>
        <mxCell id="kX25k0GwAJQY_nR9NhdA-19" value="Junior Developer" style="verticalLabelPosition=middle;html=1;strokeColor=#ffffff;verticalAlign=middle;align=left;points=[[0,0.5,0],[0.125,0.25,0],[0.25,0,0],[0.5,0,0],[0.75,0,0],[0.875,0.25,0],[1,0.5,0],[0.875,0.75,0],[0.75,1,0],[0.5,1,0],[0.125,0.75,0]];pointerEvents=1;shape=mxgraph.cisco_safe.compositeIcon;bgIcon=ellipse;resIcon=mxgraph.cisco_safe.design.user;labelPosition=right;spacingRight=0;spacingLeft=6;fontFamily=Tahoma;fontStyle=1;fillColor=#FFB570;fontColor=#FFB570;" vertex="1" parent="1">
          <mxGeometry x="160" y="360" width="40" height="40" as="geometry" />
        </mxCell>
        <mxCell id="kX25k0GwAJQY_nR9NhdA-20" value="Junior Developer" style="verticalLabelPosition=middle;html=1;strokeColor=#ffffff;verticalAlign=middle;align=left;points=[[0,0.5,0],[0.125,0.25,0],[0.25,0,0],[0.5,0,0],[0.75,0,0],[0.875,0.25,0],[1,0.5,0],[0.875,0.75,0],[0.75,1,0],[0.5,1,0],[0.125,0.75,0]];pointerEvents=1;shape=mxgraph.cisco_safe.compositeIcon;bgIcon=ellipse;resIcon=mxgraph.cisco_safe.design.user;labelPosition=right;spacingRight=0;spacingLeft=6;fontFamily=Tahoma;fontStyle=1;fillColor=#FFB570;fontColor=#FFB570;" vertex="1" parent="1">
          <mxGeometry x="400" y="360" width="40" height="40" as="geometry" />
        </mxCell>
        <mxCell id="kX25k0GwAJQY_nR9NhdA-21" value="Junior Developer" style="verticalLabelPosition=middle;html=1;strokeColor=#ffffff;verticalAlign=middle;align=left;points=[[0,0.5,0],[0.125,0.25,0],[0.25,0,0],[0.5,0,0],[0.75,0,0],[0.875,0.25,0],[1,0.5,0],[0.875,0.75,0],[0.75,1,0],[0.5,1,0],[0.125,0.75,0]];pointerEvents=1;shape=mxgraph.cisco_safe.compositeIcon;bgIcon=ellipse;resIcon=mxgraph.cisco_safe.design.user;labelPosition=right;spacingRight=0;spacingLeft=6;fontFamily=Tahoma;fontStyle=1;fillColor=#FFB570;fontColor=#FFB570;" vertex="1" parent="1">
          <mxGeometry x="610" y="360" width="40" height="40" as="geometry" />
        </mxCell>
        <mxCell id="kX25k0GwAJQY_nR9NhdA-23" value="QA Tester" style="verticalLabelPosition=middle;html=1;strokeColor=#ffffff;verticalAlign=middle;align=left;points=[[0,0.5,0],[0.125,0.25,0],[0.25,0,0],[0.5,0,0],[0.75,0,0],[0.875,0.25,0],[1,0.5,0],[0.875,0.75,0],[0.75,1,0],[0.5,1,0],[0.125,0.75,0]];pointerEvents=1;shape=mxgraph.cisco_safe.compositeIcon;bgIcon=ellipse;resIcon=mxgraph.cisco_safe.design.user;labelPosition=right;spacingRight=0;spacingLeft=6;fontFamily=Tahoma;fontStyle=1;fontColor=#9AC7BF;fillColor=#9AC7BF;" vertex="1" parent="1">
          <mxGeometry x="400" y="440" width="40" height="40" as="geometry" />
        </mxCell>
        <mxCell id="kX25k0GwAJQY_nR9NhdA-25" value="QA Tester" style="verticalLabelPosition=middle;html=1;strokeColor=#ffffff;verticalAlign=middle;align=left;points=[[0,0.5,0],[0.125,0.25,0],[0.25,0,0],[0.5,0,0],[0.75,0,0],[0.875,0.25,0],[1,0.5,0],[0.875,0.75,0],[0.75,1,0],[0.5,1,0],[0.125,0.75,0]];pointerEvents=1;shape=mxgraph.cisco_safe.compositeIcon;bgIcon=ellipse;resIcon=mxgraph.cisco_safe.design.user;labelPosition=right;spacingRight=0;spacingLeft=6;fontFamily=Tahoma;fontStyle=1;fontColor=#9AC7BF;fillColor=#9AC7BF;" vertex="1" parent="1">
          <mxGeometry x="160" y="490" width="40" height="40" as="geometry" />
        </mxCell>
        <mxCell id="kX25k0GwAJQY_nR9NhdA-26" value="QA Tester" style="verticalLabelPosition=middle;html=1;strokeColor=#ffffff;verticalAlign=middle;align=left;points=[[0,0.5,0],[0.125,0.25,0],[0.25,0,0],[0.5,0,0],[0.75,0,0],[0.875,0.25,0],[1,0.5,0],[0.875,0.75,0],[0.75,1,0],[0.5,1,0],[0.125,0.75,0]];pointerEvents=1;shape=mxgraph.cisco_safe.compositeIcon;bgIcon=ellipse;resIcon=mxgraph.cisco_safe.design.user;labelPosition=right;spacingRight=0;spacingLeft=6;fontFamily=Tahoma;fontStyle=1;fontColor=#9AC7BF;fillColor=#9AC7BF;" vertex="1" parent="1">
          <mxGeometry x="160" y="440" width="40" height="40" as="geometry" />
        </mxCell>
        <mxCell id="kX25k0GwAJQY_nR9NhdA-27" value="QA Tester" style="verticalLabelPosition=middle;html=1;strokeColor=#ffffff;verticalAlign=middle;align=left;points=[[0,0.5,0],[0.125,0.25,0],[0.25,0,0],[0.5,0,0],[0.75,0,0],[0.875,0.25,0],[1,0.5,0],[0.875,0.75,0],[0.75,1,0],[0.5,1,0],[0.125,0.75,0]];pointerEvents=1;shape=mxgraph.cisco_safe.compositeIcon;bgIcon=ellipse;resIcon=mxgraph.cisco_safe.design.user;labelPosition=right;spacingRight=0;spacingLeft=6;fontFamily=Tahoma;fontStyle=1;fontColor=#9AC7BF;fillColor=#9AC7BF;" vertex="1" parent="1">
          <mxGeometry x="400" y="490" width="40" height="40" as="geometry" />
        </mxCell>
        <mxCell id="kX25k0GwAJQY_nR9NhdA-28" value="QA Tester" style="verticalLabelPosition=middle;html=1;strokeColor=#ffffff;verticalAlign=middle;align=left;points=[[0,0.5,0],[0.125,0.25,0],[0.25,0,0],[0.5,0,0],[0.75,0,0],[0.875,0.25,0],[1,0.5,0],[0.875,0.75,0],[0.75,1,0],[0.5,1,0],[0.125,0.75,0]];pointerEvents=1;shape=mxgraph.cisco_safe.compositeIcon;bgIcon=ellipse;resIcon=mxgraph.cisco_safe.design.user;labelPosition=right;spacingRight=0;spacingLeft=6;fontFamily=Tahoma;fontStyle=1;fontColor=#9AC7BF;fillColor=#9AC7BF;" vertex="1" parent="1">
          <mxGeometry x="610" y="440" width="40" height="40" as="geometry" />
        </mxCell>
        <mxCell id="kX25k0GwAJQY_nR9NhdA-29" value="QA Tester" style="verticalLabelPosition=middle;html=1;strokeColor=#ffffff;verticalAlign=middle;align=left;points=[[0,0.5,0],[0.125,0.25,0],[0.25,0,0],[0.5,0,0],[0.75,0,0],[0.875,0.25,0],[1,0.5,0],[0.875,0.75,0],[0.75,1,0],[0.5,1,0],[0.125,0.75,0]];pointerEvents=1;shape=mxgraph.cisco_safe.compositeIcon;bgIcon=ellipse;resIcon=mxgraph.cisco_safe.design.user;labelPosition=right;spacingRight=0;spacingLeft=6;fontFamily=Tahoma;fontStyle=1;fontColor=#9AC7BF;fillColor=#9AC7BF;" vertex="1" parent="1">
          <mxGeometry x="610" y="490" width="40" height="40" as="geometry" />
        </mxCell>
        <mxCell id="kX25k0GwAJQY_nR9NhdA-30" value="BA / PO" style="verticalLabelPosition=middle;html=1;strokeColor=#ffffff;verticalAlign=middle;align=left;points=[[0,0.5,0],[0.125,0.25,0],[0.25,0,0],[0.5,0,0],[0.75,0,0],[0.875,0.25,0],[1,0.5,0],[0.875,0.75,0],[0.75,1,0],[0.5,1,0],[0.125,0.75,0]];pointerEvents=1;shape=mxgraph.cisco_safe.compositeIcon;bgIcon=ellipse;resIcon=mxgraph.cisco_safe.design.user;labelPosition=right;spacingRight=0;spacingLeft=6;fontFamily=Tahoma;fontStyle=1;fontColor=#9AC7BF;fillColor=#FFA1F9;" vertex="1" parent="1">
          <mxGeometry x="160" y="570" width="40" height="40" as="geometry" />
        </mxCell>
      </root>
    </mxGraphModel>
  </diagram>
</mxfile>
